<?xml version="1.0" encoding="UTF-8"?> <svg xmlns="http://www.w3.org/2000/svg" width="22" height="22" viewBox="0 0 22 22" fill="none"> <path d="M11.0017 11.5478H3.22578C3.07991 11.5478 2.94002 11.4898 2.83687 11.3867C2.73373 11.2835 2.67578 11.1436 2.67578 10.9978V5.07317C2.67636 4.43649 2.92954 3.82605 3.37975 3.37584C3.82995 2.92564 4.4404 2.67246 5.07708 2.67188H11.0017C11.1476 2.67188 11.2874 2.72982 11.3906 2.83297C11.4937 2.93611 11.5517 3.07601 11.5517 3.22187V10.9978C11.5517 11.1436 11.4937 11.2835 11.3906 11.3867C11.2874 11.4898 11.1476 11.5478 11.0017 11.5478ZM3.77578 10.4478H10.4517V3.77188H5.07708C4.73213 3.77246 4.40148 3.90974 4.15757 4.15366C3.91365 4.39757 3.77636 4.72823 3.77578 5.07317V10.4478Z" fill="white"></path> <path d="M8.79919 7.6625H5.42109C5.27522 7.6625 5.13533 7.60455 5.03219 7.50141C4.92904 7.39826 4.87109 7.25837 4.87109 7.1125C4.87109 6.96663 4.92904 6.82674 5.03219 6.72359C5.13533 6.62045 5.27522 6.5625 5.42109 6.5625H8.79919C8.94506 6.5625 9.08496 6.62045 9.1881 6.72359C9.29125 6.82674 9.34919 6.96663 9.34919 7.1125C9.34919 7.25837 9.29125 7.39826 9.1881 7.50141C9.08496 7.60455 8.94506 7.6625 8.79919 7.6625Z" fill="white"></path> <path d="M7.1125 9.3531C6.96663 9.3531 6.82674 9.29515 6.72359 9.19201C6.62045 9.08886 6.5625 8.94897 6.5625 8.8031V5.425C6.5625 5.27913 6.62045 5.13924 6.72359 5.03609C6.82674 4.93295 6.96663 4.875 7.1125 4.875C7.25837 4.875 7.39826 4.93295 7.50141 5.03609C7.60455 5.13924 7.6625 5.27913 7.6625 5.425V8.8031C7.6625 8.94897 7.60455 9.08886 7.50141 9.19201C7.39826 9.29515 7.25837 9.3531 7.1125 9.3531Z" fill="white"></path> <path d="M18.7623 11.5478H10.9875C10.8416 11.5478 10.7017 11.4898 10.5986 11.3867C10.4954 11.2835 10.4375 11.1436 10.4375 10.9978V3.22187C10.4375 3.07601 10.4954 2.93611 10.5986 2.83297C10.7017 2.72982 10.8416 2.67188 10.9875 2.67188H16.9121C17.5486 2.67275 18.1588 2.92606 18.6087 3.37623C19.0587 3.8264 19.3117 4.43668 19.3123 5.07317V10.9978C19.3123 11.1436 19.2544 11.2835 19.1512 11.3867C19.0481 11.4898 18.9082 11.5478 18.7623 11.5478ZM11.5375 10.4478H18.2123V5.07317C18.212 4.72833 18.075 4.39767 17.8312 4.15373C17.5875 3.90978 17.2569 3.77246 16.9121 3.77188H11.5375V10.4478Z" fill="white"></path> <path d="M16.5631 7.6625H13.1828C13.0369 7.6625 12.897 7.60455 12.7939 7.50141C12.6908 7.39826 12.6328 7.25837 12.6328 7.1125C12.6328 6.96663 12.6908 6.82674 12.7939 6.72359C12.897 6.62045 13.0369 6.5625 13.1828 6.5625H16.5631C16.709 6.5625 16.8489 6.62045 16.952 6.72359C17.0552 6.82674 17.1131 6.96663 17.1131 7.1125C17.1131 7.25837 17.0552 7.39826 16.952 7.50141C16.8489 7.60455 16.709 7.6625 16.5631 7.6625Z" fill="white"></path> <path d="M11.0017 19.2431H5.07708C4.44059 19.2425 3.83031 18.9895 3.38014 18.5395C2.92996 18.0895 2.67665 17.4794 2.67578 16.8429V10.9172C2.67578 10.7713 2.73373 10.6314 2.83687 10.5283C2.94002 10.4251 3.07991 10.3672 3.22578 10.3672H11.0017C11.1476 10.3672 11.2874 10.4251 11.3906 10.5283C11.4937 10.6314 11.5517 10.7713 11.5517 10.9172V18.6931C11.5517 18.839 11.4937 18.9789 11.3906 19.082C11.2874 19.1851 11.1476 19.2431 11.0017 19.2431ZM3.77578 11.4672V16.8429C3.77665 17.1876 3.91407 17.518 4.15795 17.7617C4.40184 18.0054 4.73232 18.1425 5.07708 18.1431H10.4517V11.4672H3.77578Z" fill="white"></path> <path d="M8.30588 16.5512C8.16083 16.5512 8.02167 16.4938 7.91868 16.3917L5.52728 14.0003C5.47475 13.9496 5.43285 13.8889 5.40403 13.8218C5.3752 13.7547 5.36003 13.6825 5.3594 13.6095C5.35876 13.5364 5.37268 13.464 5.40033 13.3964C5.42799 13.3288 5.46883 13.2674 5.52047 13.2158C5.57211 13.1641 5.63352 13.1233 5.70111 13.0956C5.7687 13.068 5.84113 13.0541 5.91415 13.0547C5.98718 13.0553 6.05935 13.0705 6.12646 13.0993C6.19356 13.1282 6.25425 13.1701 6.30498 13.2226L8.69528 15.6129C8.77202 15.6899 8.82423 15.7879 8.84532 15.8945C8.8664 16.0011 8.85542 16.1116 8.81376 16.212C8.77209 16.3124 8.70162 16.3982 8.61122 16.4586C8.52083 16.5189 8.41458 16.5512 8.30588 16.5512Z" fill="white"></path> <path d="M5.91597 16.5512C5.80737 16.551 5.70127 16.5186 5.61105 16.4581C5.52082 16.3977 5.45051 16.3119 5.40899 16.2115C5.36746 16.1112 5.35657 16.0008 5.37769 15.8942C5.39881 15.7877 5.451 15.6898 5.52767 15.6129L7.91907 13.2226C7.96981 13.1701 8.0305 13.1282 8.0976 13.0993C8.1647 13.0705 8.23687 13.0553 8.3099 13.0547C8.38293 13.0541 8.45535 13.068 8.52295 13.0956C8.59054 13.1233 8.65195 13.1641 8.70359 13.2158C8.75523 13.2674 8.79607 13.3288 8.82372 13.3964C8.85138 13.464 8.86529 13.5364 8.86466 13.6095C8.86403 13.6825 8.84885 13.7547 8.82003 13.8218C8.7912 13.8889 8.7493 13.9496 8.69677 14.0003L6.30537 16.3917C6.20185 16.4944 6.06178 16.5517 5.91597 16.5512Z" fill="white"></path> <path d="M16.9121 19.2431H10.9875C10.8416 19.2431 10.7017 19.1851 10.5986 19.082C10.4954 18.9789 10.4375 18.839 10.4375 18.6931V10.9172C10.4375 10.7713 10.4954 10.6314 10.5986 10.5283C10.7017 10.4251 10.8416 10.3672 10.9875 10.3672H18.7623C18.9082 10.3672 19.0481 10.4251 19.1512 10.5283C19.2544 10.6314 19.3123 10.7713 19.3123 10.9172V16.8429C19.3114 17.4792 19.0583 18.0892 18.6083 18.5391C18.1584 18.9891 17.5484 19.2422 16.9121 19.2431ZM11.5375 18.1431H16.9121C17.2568 18.1425 17.5871 18.0053 17.8308 17.7616C18.0745 17.5179 18.2117 17.1875 18.2123 16.8429V11.4672H11.5375V18.1431Z" fill="white"></path> <path d="M16.5631 15.3578H13.1828C13.0369 15.3578 12.897 15.2999 12.7939 15.1967C12.6908 15.0936 12.6328 14.9537 12.6328 14.8078C12.6328 14.6619 12.6908 14.522 12.7939 14.4189C12.897 14.3158 13.0369 14.2578 13.1828 14.2578H16.5631C16.709 14.2578 16.8489 14.3158 16.952 14.4189C17.0552 14.522 17.1131 14.6619 17.1131 14.8078C17.1131 14.9537 17.0552 15.0936 16.952 15.1967C16.8489 15.2999 16.709 15.3578 16.5631 15.3578Z" fill="white"></path> <path d="M14.8742 13.667C14.802 13.6671 14.7304 13.653 14.6636 13.6254C14.5967 13.5979 14.536 13.5574 14.4848 13.5064C14.4594 13.4804 14.4366 13.4521 14.4166 13.4217C14.397 13.3917 14.3801 13.3601 14.366 13.3271C14.3525 13.2941 14.3422 13.2598 14.3352 13.2248C14.3276 13.1886 14.3239 13.1517 14.3242 13.1148C14.324 13.0778 14.3277 13.0409 14.3352 13.0048C14.3422 12.9698 14.3525 12.9355 14.366 12.9025C14.3803 12.8692 14.3972 12.8372 14.4166 12.8068C14.4874 12.701 14.5925 12.6231 14.7143 12.5862C14.836 12.5492 14.9668 12.5557 15.0843 12.6044C15.1173 12.6184 15.149 12.6353 15.1789 12.655C15.2093 12.6749 15.2377 12.6978 15.2636 12.7232C15.2887 12.749 15.3116 12.777 15.3318 12.8068C15.3513 12.8372 15.3682 12.8692 15.3824 12.9025C15.396 12.9355 15.4063 12.9698 15.4132 13.0048C15.4208 13.0409 15.4245 13.0778 15.4242 13.1148C15.4246 13.1517 15.4209 13.1886 15.4132 13.2248C15.4063 13.2598 15.396 13.2941 15.3824 13.3271C15.3684 13.3601 15.3515 13.3917 15.3318 13.4217C15.3112 13.4518 15.288 13.4802 15.2625 13.5064C15.1595 13.6092 15.0198 13.6669 14.8742 13.667Z" fill="white"></path> <path d="M14.8742 17.0474C14.7284 17.0474 14.5885 16.9895 14.4853 16.8863C14.3822 16.7832 14.3242 16.6433 14.3242 16.4974C14.3239 16.4605 14.3276 16.4236 14.3352 16.3874C14.3422 16.3524 14.3525 16.3181 14.366 16.2851C14.38 16.2521 14.397 16.2205 14.4166 16.1905C14.4363 16.1603 14.4592 16.1323 14.4848 16.1069C14.5617 16.0299 14.6597 15.9773 14.7664 15.956C14.8731 15.9347 14.9838 15.9454 15.0843 15.987C15.1173 16.001 15.149 16.018 15.1789 16.0376C15.2096 16.0576 15.238 16.0808 15.2636 16.1069C15.289 16.1325 15.3118 16.1605 15.3318 16.1905C15.3515 16.2205 15.3684 16.2521 15.3824 16.2851C15.396 16.3181 15.4063 16.3524 15.4132 16.3874C15.4209 16.4236 15.4246 16.4605 15.4242 16.4974C15.4245 16.5344 15.4209 16.5713 15.4132 16.6074C15.4063 16.6424 15.396 16.6767 15.3824 16.7097C15.3684 16.7427 15.3515 16.7744 15.3318 16.8043C15.3117 16.8345 15.2885 16.8626 15.2625 16.8879C15.2372 16.9139 15.2092 16.9372 15.1789 16.9572C15.149 16.9769 15.1173 16.9938 15.0843 17.0078C15.0513 17.0214 15.0171 17.0317 14.982 17.0386C14.9465 17.0453 14.9104 17.0482 14.8742 17.0474Z" fill="white"></path> </svg> 