<?xml version="1.0" encoding="UTF-8"?> <svg xmlns="http://www.w3.org/2000/svg" width="32" height="32" viewBox="0 0 32 32" fill="none"> <g clip-path="url(#clip0_2802_20)"> <path d="M13.3905 24.8725C13.9114 24.9564 14.4457 25 14.9903 25H18.0423L17.3426 24.7145L24.4906 31.7145C25.0931 32.3046 26.1106 31.9296 26.1862 31.0896L26.8956 23.2047L26.3336 24.016C29.7675 22.3621 32 18.8812 32 15C32 12.7215 31.2389 10.6211 29.9573 8.93961C29.9856 9.28935 30 9.64299 30 10C30 10.9639 29.8952 11.9033 29.6963 12.8074C29.8941 13.5041 30 14.2396 30 15C30 18.1057 28.214 20.8905 25.4657 22.2141C25.1487 22.3668 24.9352 22.675 24.9037 23.0255L24.1942 30.9104L25.8899 30.2855L18.7419 23.2855C18.555 23.1025 18.3039 23 18.0423 23H15.9967H15.263L13.3905 24.8725ZM2 10.3646C2 5.74396 5.73274 2 10.3377 2H17.6623C22.2632 2 26 5.74677 26 10.3646C26 14.9852 22.2673 18.7291 17.6623 18.7291H14.4776C14.2047 18.7291 13.9426 18.8363 13.7475 19.0277L6.2888 26.3467L8.05818 27L7.31788 18.7557C7.28498 18.3893 7.06224 18.0671 6.73139 17.9074C3.86369 16.5235 2 13.6118 2 10.3646ZM5.2934 18.878L6.02912 27.0545C6.1075 27.9256 7.16269 28.3144 7.78758 27.7025L15.2003 20.4436L14.4747 20.7397H17.6397C23.3622 20.7397 28 16.0974 28 10.3698C28 4.64486 23.358 0 17.6397 0H10.3603C4.63782 0 0 4.64222 0 10.3698C0 14.3946 2.31515 18.0042 5.87627 19.7193L5.2934 18.878Z" fill="#CDB471"></path> </g> <defs> <clipPath id="clip0_2802_20"> <rect width="32" height="32" fill="white"></rect> </clipPath> </defs> </svg> 