<?xml version="1.0" encoding="UTF-8"?> <svg xmlns="http://www.w3.org/2000/svg" width="613" height="613" viewBox="0 0 613 613" fill="none"> <g clip-path="url(#clip0_525_150)"> <path d="M592.874 306C592.874 226.785 560.758 155.062 508.857 103.142C456.938 51.242 385.214 19.126 306 19.126C226.786 19.126 155.062 51.242 103.162 103.142C51.242 155.062 19.126 226.785 19.126 306C19.126 385.215 51.242 456.958 103.142 508.857C155.042 560.756 226.786 592.873 305.98 592.873C385.194 592.873 456.918 560.758 508.838 508.857C560.758 456.958 592.874 385.234 592.874 306ZM522.386 89.634C577.752 145 612.02 221.506 612.02 306.02C612.02 390.514 577.773 467.019 522.386 522.406C466.999 577.771 390.494 612.02 306 612.02C221.506 612.02 145.001 577.773 89.614 522.386C34.268 467.019 0 390.514 0 306C0 221.506 34.248 145 89.634 89.614C144.981 34.268 221.486 0 306 0C390.494 0 466.999 34.248 522.386 89.634Z" fill="white"></path> <path d="M296.457 439.903C301.736 439.903 306.02 444.185 306.02 449.465C306.02 454.744 301.736 459.028 296.457 459.028H219.952C214.673 459.028 210.389 454.745 210.389 449.465C210.389 444.185 214.673 439.903 219.952 439.903H296.457Z" fill="white"></path> <path d="M334.709 344.292C329.43 344.292 325.147 340.009 325.147 334.729C325.147 329.45 329.429 325.167 334.709 325.167C353.178 325.167 369.934 317.676 382.047 305.563L382.585 305.065C394.359 293.031 401.671 276.495 401.671 258.246C401.671 239.757 394.16 223.002 382.047 210.909L381.549 210.371C369.495 198.557 352.959 191.265 334.709 191.265H219.952C214.673 191.265 210.389 186.981 210.389 181.702C210.389 176.422 214.673 172.139 219.952 172.139H334.709C358.119 172.139 379.417 181.543 394.957 196.804L395.574 197.362C411.135 212.922 420.797 234.459 420.797 258.227C420.797 281.637 411.394 302.915 396.152 318.455L395.593 319.072C380.015 334.649 358.478 344.292 334.709 344.292Z" fill="white"></path> <path d="M219.932 344.292C214.653 344.292 210.369 340.009 210.369 334.729C210.369 329.45 214.653 325.167 219.932 325.167H334.67C339.949 325.167 344.233 329.45 344.233 334.729C344.233 340.008 339.95 344.292 334.67 344.292H219.932Z" fill="white"></path> <path d="M267.748 449.467C267.748 454.746 263.464 459.03 258.185 459.03C252.905 459.03 248.622 454.747 248.622 449.467V181.719C248.622 176.439 252.906 172.157 258.185 172.157C263.464 172.157 267.748 176.441 267.748 181.719V449.467Z" fill="white"></path> <path d="M219.932 382.545C214.653 382.545 210.369 378.261 210.369 372.983C210.369 367.704 214.653 363.42 219.932 363.42H353.836C359.115 363.42 363.399 367.704 363.399 372.983C363.399 378.261 359.116 382.545 353.836 382.545H219.932Z" fill="white"></path> </g> <defs> <clipPath id="clip0_525_150"> <rect width="612.02" height="612.02" fill="white"></rect> </clipPath> </defs> </svg> 