<?xml version="1.0" encoding="UTF-8"?> <svg xmlns="http://www.w3.org/2000/svg" width="612" height="612" viewBox="0 0 612 612" fill="none"> <g clip-path="url(#clip0_527_122)"> <path d="M535.442 364.989C530.164 364.989 525.88 360.707 525.88 355.427C525.88 350.147 530.163 345.864 535.442 345.864H577.714C581.859 345.864 585.662 344.151 588.392 341.401C591.141 338.652 592.855 334.868 592.855 330.723V281.319C592.855 277.155 591.162 273.351 588.432 270.641L588.411 270.621L588.39 270.641C585.641 267.892 581.857 266.179 577.712 266.179H535.44C530.66 266.179 526.695 262.653 525.998 258.051C523.13 244.843 519.104 232.074 514.045 219.882L513.846 219.384C508.687 206.993 502.392 195.12 495.16 183.924C492.67 180.079 493.287 175.099 496.415 171.991L496.395 171.971L526.316 142.049C529.245 139.121 530.699 135.216 530.699 131.352C530.699 127.467 529.224 123.562 526.316 120.654L491.393 85.7317C488.465 82.8027 484.581 81.3287 480.676 81.3287C476.771 81.3287 472.866 82.7827 469.979 85.6917L469.939 85.6717L469.96 85.6917L440.058 115.594C436.653 119 431.274 119.28 427.508 116.45C416.352 109.259 404.519 103.043 392.167 97.9427L392.128 97.9227V97.9427C379.776 92.8227 366.808 88.7387 353.4 85.8907C348.918 84.9347 345.83 80.9707 345.83 76.5477H345.809V34.2767C345.809 30.1127 344.117 26.3077 341.386 23.5987L341.347 23.5587C338.659 20.8297 334.872 19.1367 330.69 19.1367H281.285C277.121 19.1367 273.317 20.8297 270.607 23.5587L270.567 23.5987C267.838 26.3077 266.144 30.1127 266.144 34.2767V76.5487C266.144 81.3297 262.598 85.2947 257.997 85.9917C244.769 88.8807 231.98 92.8847 219.828 97.9247V97.9447C207.218 103.165 195.166 109.519 183.85 116.83C180.045 119.34 175.065 118.703 171.957 115.575L171.937 115.595L142.016 85.6927C139.087 82.7647 135.183 81.2907 131.318 81.2907C127.453 81.2907 123.548 82.7647 120.64 85.6727L120.62 85.6927L85.678 120.635C82.769 123.563 81.276 127.448 81.276 131.333C81.276 135.218 82.75 139.122 85.678 142.05L86.176 142.588L115.602 172.013C118.829 175.26 119.227 180.241 116.837 183.926C109.526 195.221 103.171 207.274 97.952 219.884C92.812 232.235 88.748 245.184 85.88 258.591C84.924 263.073 80.96 266.161 76.537 266.161V266.181H34.265C30.101 266.181 26.336 267.874 23.587 270.584L23.547 270.624C20.818 273.373 19.125 277.158 19.125 281.302V330.707C19.125 334.851 20.838 338.654 23.587 341.385L23.985 341.823C26.654 344.313 30.28 345.846 34.244 345.846H76.517C81.298 345.846 85.262 349.372 85.959 353.974C88.828 367.182 92.852 379.953 97.912 392.143L98.111 392.641C103.271 405.033 109.566 416.906 116.798 428.101C119.288 431.946 118.671 436.926 115.543 440.054L115.563 440.074L85.661 469.976C82.733 472.904 81.259 476.809 81.259 480.694C81.259 484.579 82.733 488.483 85.661 491.391L120.603 526.313C123.532 529.243 127.416 530.715 131.301 530.715C135.206 530.715 139.09 529.261 141.999 526.372L171.901 496.45C175.168 493.142 180.288 492.745 183.993 495.255C195.248 502.526 207.261 508.882 219.831 514.081L220.19 514.239C232.382 519.26 245.231 523.263 258.518 526.112C263 527.068 266.088 531.034 266.088 535.456H266.108V577.728C266.108 581.891 267.801 585.676 270.51 588.425L270.55 588.465C273.299 591.174 277.084 592.867 281.228 592.867H330.633C334.778 592.867 338.581 591.153 341.311 588.404L341.749 588.007C344.238 585.318 345.772 581.692 345.772 577.728V535.456C345.772 530.676 349.297 526.711 353.9 525.994C367.108 523.125 379.878 519.121 392.048 514.059C404.658 508.82 416.732 502.465 428.027 495.155C431.872 492.644 436.872 493.282 440 496.429L440.199 496.628L469.882 526.33L469.903 526.309C472.831 529.238 476.715 530.711 480.599 530.711C484.503 530.711 488.41 529.257 491.336 526.349L491.316 526.328L526.238 491.405L526.656 491.008C529.304 488.14 530.621 484.414 530.621 480.69C530.621 476.805 529.146 472.9 526.238 469.972L518.766 462.501L511.295 455.029L503.825 447.559L503.346 447.021L496.434 440.068C493.108 436.761 492.729 431.602 495.298 427.896L497.788 423.953H497.767L500.455 419.471L500.635 419.172L502.826 415.327L505.316 410.706L505.435 410.507L507.527 406.403L507.506 406.383L509.796 401.642C512.087 396.901 517.785 394.91 522.526 397.201C527.267 399.492 529.258 405.188 526.967 409.93L524.676 414.671H524.715L524.616 414.87L522.444 419.134L522.145 419.732L519.655 424.353L519.536 424.552L517.086 428.835L516.826 429.314L515.253 431.923L516.847 433.517L517.406 434.015L524.877 441.505L532.348 448.976L539.819 456.447C546.472 463.1 549.82 471.906 549.82 480.691C549.82 489.137 546.712 497.604 540.497 504.198L539.84 504.935L504.918 539.857L504.897 539.836L504.876 539.857C498.202 546.51 489.417 549.857 480.691 549.857C471.906 549.857 463.121 546.53 456.447 539.857L456.467 539.836L456.447 539.815L431.924 515.293C421.567 521.549 410.708 527.047 399.453 531.708C388.356 536.311 376.842 540.114 364.989 543.062V577.725C364.989 586.769 361.403 595.096 355.566 601.232L354.927 601.929C348.733 608.124 340.125 611.99 330.723 611.99H281.318C271.915 611.99 263.349 608.126 257.134 601.949L257.094 601.91C250.878 595.694 247.014 587.129 247.014 577.725V543.022C235.4 540.133 224.064 536.388 213.108 531.906L212.55 531.708C201.295 527.025 190.417 521.527 180.078 515.293L155.555 539.815L155.515 539.855C148.842 546.508 140.056 549.855 131.331 549.855C122.545 549.855 113.76 546.528 107.106 539.855L72.17 504.935C65.516 498.281 62.17 489.476 62.17 480.691C62.17 471.906 65.517 463.1 72.17 456.447L96.733 431.885C90.617 421.726 85.179 411.028 80.557 399.932L80.338 399.453C75.736 388.338 71.911 376.804 68.963 364.971H34.265C25.221 364.971 16.913 361.385 10.758 355.548L10.061 354.909C3.865 348.714 0 340.128 0 330.705V281.3C0 271.897 3.865 263.351 10.06 257.135L10.1 257.095C16.315 250.899 24.862 247.035 34.265 247.035H68.948C71.896 235.181 75.721 223.647 80.323 212.551C84.985 201.316 90.483 190.458 96.719 180.099L72.694 156.054L72.156 155.576C65.502 148.922 62.156 140.097 62.156 131.332C62.156 122.566 65.503 113.761 72.156 107.108L107.098 72.1857L107.118 72.1657C113.772 65.4917 122.557 62.1657 131.323 62.1657C140.088 62.1657 148.893 65.4927 155.547 72.1657L155.567 72.1857L180.11 96.7287C190.449 90.4937 201.306 84.9947 212.542 80.3327V80.3527L212.582 80.3327C223.698 75.7307 235.232 71.9057 247.026 68.9777V34.2737C247.026 24.8907 250.871 16.3247 257.086 10.1087L257.126 10.0687C263.339 3.85672 271.925 0.0117188 281.288 0.0117188H330.693C340.076 0.0117188 348.641 3.85672 354.857 10.0717L354.897 10.1117C361.113 16.3267 364.958 24.8937 364.958 34.2767V68.9607C376.811 71.9087 388.346 75.7337 399.441 80.3357V80.3557C410.715 85.0377 421.552 90.5157 431.852 96.7307L456.415 72.1877L456.436 72.2077C463.129 65.5147 471.915 62.1877 480.64 62.1877C489.425 62.1877 498.21 65.5147 504.884 72.1877L539.806 107.11C546.459 113.783 549.806 122.569 549.806 131.354C549.806 140.119 546.481 148.924 539.806 155.578L515.244 180.141C521.36 190.301 526.799 200.978 531.421 212.095L531.64 212.573C536.243 223.689 540.068 235.223 543.015 247.056H577.718C587.141 247.056 595.727 250.921 601.922 257.117L601.902 257.137C608.117 263.353 612.002 271.939 612.002 281.322V330.726C612.002 340.149 608.138 348.735 601.922 354.931C595.727 361.126 587.12 364.991 577.718 364.991L535.442 364.989ZM220.229 514.259L225.01 526.551C226.982 521.829 224.851 516.391 220.229 514.259ZM495.321 427.9L496.397 426.587C495.999 426.984 495.62 427.423 495.321 427.9ZM505.461 410.51L508.868 407.024C507.493 407.84 506.318 409.016 505.461 410.51Z" fill="#CDB471"></path> <path d="M305.99 185.281C339.338 185.281 369.539 198.807 391.351 220.641C413.185 242.475 426.711 272.656 426.711 306.004C426.711 339.332 413.185 369.531 391.351 391.365C369.517 413.2 339.318 426.725 305.99 426.725C272.642 426.725 242.441 413.2 220.608 391.366C198.794 369.532 185.268 339.35 185.268 306.004C185.268 272.675 198.794 242.455 220.608 220.621C242.461 198.807 272.662 185.281 305.99 185.281ZM377.846 234.167C359.479 215.799 334.059 204.404 306.01 204.404C277.961 204.404 252.542 215.779 234.174 234.147C215.807 252.514 204.432 277.934 204.432 306.003C204.432 334.052 215.807 359.45 234.174 377.839C252.542 396.206 277.961 407.601 306.01 407.601C334.059 407.601 359.479 396.206 377.846 377.839C396.213 359.472 407.61 334.052 407.61 306.003C407.588 277.954 396.213 252.555 377.846 234.167Z" fill="#CDB471"></path> <path d="M305.99 234.686C325.692 234.686 343.542 242.675 356.41 255.563C369.3 268.452 377.306 286.302 377.306 306.004C377.306 325.626 369.319 343.456 356.41 356.385L356.389 356.405L356.369 356.426L356.348 356.447C343.419 369.356 325.611 377.324 305.989 377.324C286.287 377.324 268.457 369.337 255.548 356.428C242.659 343.539 234.671 325.69 234.671 306.008C234.671 286.345 242.66 268.496 255.548 255.607L255.588 255.567C268.498 242.675 286.348 234.686 305.99 234.686ZM342.904 269.09C333.481 259.667 320.413 253.81 306.008 253.81C291.605 253.81 278.537 259.627 269.094 269.05L269.054 269.09C259.651 278.532 253.814 291.601 253.814 306.004C253.814 320.406 259.671 333.475 269.093 342.898C278.536 352.341 291.584 358.198 306.007 358.198C320.45 358.198 333.498 352.361 342.903 342.96L342.943 342.92C352.365 333.517 358.181 320.447 358.181 306.024C358.181 291.601 352.327 278.533 342.904 269.09Z" fill="#CDB471"></path> </g> <defs> <clipPath id="clip0_527_122"> <rect width="612.002" height="612.002" fill="white"></rect> </clipPath> </defs> </svg> 