<?xml version="1.0" encoding="UTF-8"?> <svg xmlns="http://www.w3.org/2000/svg" width="64" height="64" viewBox="0 0 64 64" fill="none"> <path d="M62 1H2C1.447 1 1 1.448 1 2V46C1 46.552 1.447 47 2 47H13.82L12.014 57.835C11.952 58.206 12.104 58.581 12.407 58.804C12.709 59.028 13.11 59.062 13.448 58.894L21 55.118L28.553 58.894C28.694 58.965 28.848 59 29 59C29.21 59 29.419 58.934 29.594 58.804C29.897 58.581 30.048 58.206 29.987 57.835L28.18 47H49V53H46C45.447 53 45 53.448 45 54V57H44C43.447 57 43 57.448 43 58V62C43 62.552 43.447 63 44 63H60C60.553 63 61 62.552 61 62V58C61 57.448 60.553 57 60 57H59V54C59 53.448 58.553 53 58 53H55V47H62C62.553 47 63 46.552 63 46V2C63 1.448 62.553 1 62 1ZM11.569 35.667C11.25 36.57 11.072 37.51 11.022 38.468C9.805 37.77 9 36.462 9 35V13C9 10.794 10.794 9 13 9H51C53.206 9 55 10.794 55 13V35C55 35.714 54.806 36.394 54.453 37H48C47.447 37 47 37.448 47 38V39H31C31 33.486 26.514 29 21 29C16.77 29 12.979 31.679 11.569 35.667ZM54 41H50H49V39H55V41H54ZM13.455 36.333C14.583 33.143 17.615 31 21 31C25.411 31 29 34.589 29 39C29 43.411 25.411 47 21 47C16.589 47 13 43.411 13 39C13 38.085 13.153 37.188 13.455 36.333ZM21.447 53.105C21.166 52.964 20.834 52.964 20.552 53.105L14.309 56.227L15.763 47.502C17.289 48.446 19.079 49 21 49C22.921 49 24.711 48.446 26.237 47.503L27.691 56.228L21.447 53.105ZM28.981 45C29.859 43.835 30.497 42.48 30.799 41H47V42C47 42.552 47.447 43 48 43H49V45H28.981ZM59 61H45V59H46H58H59V61ZM57 57H47V55H50H54H57V57ZM51 53V43H53V53H51ZM61 45H55V43H56C56.553 43 57 42.552 57 42V38C57 37.663 56.823 37.38 56.567 37.198C56.842 36.504 57 35.766 57 35V13C57 9.691 54.309 7 51 7H13C9.691 7 7 9.691 7 13V35C7 37.614 8.717 39.895 11.154 40.688C11.428 42.287 12.081 43.755 13.019 45H3V3H61V45Z" fill="#CDB471"></path> <path d="M21 45C24.309 45 27 42.309 27 39C27 35.691 24.309 33 21 33C17.691 33 15 35.691 15 39C15 42.309 17.691 45 21 45ZM21 35C23.206 35 25 36.794 25 39C25 41.206 23.206 43 21 43C18.794 43 17 41.206 17 39C17 36.794 18.794 35 21 35Z" fill="#CDB471"></path> <path d="M38 13H26V15H38V13Z" fill="#CDB471"></path> <path d="M43 17H21V19H43V17Z" fill="#CDB471"></path> <path d="M38 21H26V23H38V21Z" fill="#CDB471"></path> </svg> 