<?xml version="1.0" encoding="UTF-8"?> <svg xmlns="http://www.w3.org/2000/svg" id="whatsapp" width="56.125" height="56" viewBox="0 0 56.125 56"> <defs> <style> .cls-1 { fill: #23d364; } .cls-2 { fill: #fff; fill-rule: evenodd; } </style> </defs> <circle id="Эллипс" class="cls-1" cx="28.063" cy="28" r="28.063"></circle> <path id="Фигура_1" data-name="Фигура 1" class="cls-2" d="M618.478,1109a12.267,12.267,0,0,0-19.312,14.79l-1.741,6.36,6.5-1.71a12.343,12.343,0,0,0,5.863,1.5h0a12.291,12.291,0,0,0,12.27-12.27A12.165,12.165,0,0,0,618.478,1109Zm-8.68,18.86h0a10.168,10.168,0,0,1-5.191-1.42l-0.372-.22-3.86,1.01,1.03-3.76-0.242-.38A10.2,10.2,0,1,1,609.8,1127.86Zm5.594-7.63c-0.306-.15-1.814-0.89-2.1-1a0.478,0.478,0,0,0-.689.16c-0.2.3-.792,0.99-0.971,1.2a0.467,0.467,0,0,1-.664.07,8.139,8.139,0,0,1-2.466-1.52,9.139,9.139,0,0,1-1.706-2.12,0.457,0.457,0,0,1,.135-0.62,9.712,9.712,0,0,0,.766-1.05,0.568,0.568,0,0,0-.025-0.54c-0.077-.15-0.69-1.66-0.945-2.27a0.614,0.614,0,0,0-.69-0.53c-0.179-.01-0.384-0.01-0.588-0.01a1.149,1.149,0,0,0-.818.38,3.45,3.45,0,0,0-1.073,2.56,5.977,5.977,0,0,0,1.252,3.17,13.728,13.728,0,0,0,5.238,4.63,18.424,18.424,0,0,0,1.748.64,4.23,4.23,0,0,0,1.931.12,3.174,3.174,0,0,0,2.069-1.45,2.563,2.563,0,0,0,.179-1.46A1.481,1.481,0,0,0,615.392,1120.23Z" transform="translate(-582.031 -1090)"></path> </svg> 