<?xml version="1.0" encoding="UTF-8"?> <!-- icon666.com - MILLIONS vector ICONS FREE --> <svg xmlns="http://www.w3.org/2000/svg" xmlns:xlink="http://www.w3.org/1999/xlink" id="Capa_1" x="0px" y="0px" viewBox="0 0 512 512" style="enable-background:new 0 0 512 512;" xml:space="preserve"> <g> <g> <g> <path d="M256,112c0-35.346-28.654-64-64-64h-32v32h32c17.673,0,32,14.327,32,32s-14.327,32-32,32H0v32h192 C227.346,176,256,147.346,256,112z"></path> <path d="M400,152c0,30.928-25.072,56-56,56H144v32h200c48.601,0,88-39.399,88-88s-39.399-88-88-88h-24v32h24 C374.928,96,400,121.072,400,152z"></path> <path d="M416,272H0v32h416c35.346,0,64,28.654,64,64c0,35.346-28.654,64-64,64h-32v32h32c53.019,0,96-42.981,96-96 S469.019,272,416,272z"></path> <rect x="32" y="336" width="32" height="32"></rect> <rect x="96" y="336" width="32" height="32"></rect> <rect x="16" y="208" width="32" height="32"></rect> <rect x="80" y="208" width="32" height="32"></rect> <rect x="160" y="336" width="192" height="32"></rect> </g> </g> </g> </svg> 