<?xml version="1.0" encoding="UTF-8"?> <!-- icon666.com - MILLIONS vector ICONS FREE --> <svg xmlns="http://www.w3.org/2000/svg" xmlns:xlink="http://www.w3.org/1999/xlink" id="Layer_1" x="0px" y="0px" viewBox="0 0 512 512" style="enable-background:new 0 0 512 512;" xml:space="preserve"> <g> <g> <path d="M464.457,314.514L409.6,241.371c-1.417-1.883-3.493-3.145-5.806-3.529l-54.857-9.143c-1.262-0.21-2.487-0.155-3.648,0.128 c-11.438-14.775-22.629-28.242-32.229-39.387l64.018-16c2.35-0.585,4.37-2.085,5.614-4.16l27.429-45.714 c2.606-4.334,1.198-9.947-3.127-12.544c-4.334-2.606-9.957-1.207-12.544,3.127l-25.49,42.469l-59.95,14.994 c1.161-5.184,1.847-10.587,1.847-16.183c0-7.195-1.115-14.153-3.035-20.727c0.11-0.101,0.247-0.128,0.357-0.238l36.571-36.571 c1.719-1.71,2.679-4.041,2.679-6.464V64c0-5.047-4.096-9.143-9.143-9.143c-5.047,0-9.143,4.096-9.143,9.143v23.643l-29.339,29.33 c-1.618-2.505-3.438-4.846-5.385-7.067c4.489-4.882,7.296-11.337,7.296-18.478c0-11.703-7.406-21.641-17.746-25.573 c3.584-26.807,26.542-47.57,54.318-47.57c5.047,0,9.143-4.096,9.143-9.143c0-5.047-4.096-9.143-9.143-9.143 c-37.23,0-67.986,27.977-72.512,64h-19.547c-4.526-36.023-35.282-64-72.512-64c-5.047,0-9.143,4.096-9.143,9.143 c0,5.047,4.096,9.143,9.143,9.143c27.776,0,50.734,20.763,54.318,47.57c-10.341,3.931-17.746,13.87-17.746,25.573 c0,7.141,2.807,13.595,7.296,18.478c-1.947,2.222-3.767,4.562-5.394,7.067l-29.33-29.33V64c0-5.047-4.096-9.143-9.143-9.143 s-9.143,4.096-9.143,9.143v27.429c0,2.423,0.96,4.754,2.679,6.464l36.571,36.571c0.11,0.11,0.247,0.137,0.357,0.238 c-1.92,6.574-3.035,13.531-3.035,20.727c0,5.595,0.686,10.999,1.847,16.183l-59.95-14.994l-25.49-42.469 c-2.597-4.334-8.219-5.723-12.544-3.127c-4.325,2.597-5.733,8.21-3.127,12.544l27.429,45.714c1.243,2.075,3.264,3.575,5.614,4.16 l59.886,14.976c-9.801,11.355-21.339,25.225-33.152,40.512l-53.449,8.914c-2.313,0.384-4.398,1.646-5.806,3.529l-54.857,73.143 c-3.026,4.041-2.213,9.774,1.829,12.8c1.646,1.234,3.566,1.829,5.477,1.829c2.779,0,5.522-1.262,7.323-3.657l52.663-70.217 l31.031-5.166c-25.143,34.935-48.274,73.874-54.382,105.472c-0.037,0.329-0.338,3.319-0.055,7.845 c1.024,16.21,8.448,31.067,20.901,41.819c11.474,9.92,26.395,15.378,41.582,15.378c1.737,0,3.483-0.064,5.221-0.21 c7.717-0.64,14.592-1.975,20.919-3.712C192.622,474.935,221.815,512,256,512c33.819,0,62.939-36.626,75.675-94.117 c5.038,1.115,10.331,2.039,16.155,2.523c1.746,0.146,3.483,0.21,5.23,0.21c15.186,0,30.107-5.467,41.582-15.378 c12.453-10.761,19.877-25.609,20.901-41.819c0.283-4.526-0.018-7.515-0.165-8.585c-6.107-31.525-29.522-70.629-54.866-105.673 l36.654,6.107l52.663,70.217c1.792,2.395,4.544,3.657,7.323,3.657c1.902,0,3.831-0.594,5.477-1.829 C466.67,324.288,467.483,318.555,464.457,314.514z M173.129,359.781c-1.371,3.666-4.855,5.934-8.558,5.934 c-1.07,0-2.149-0.192-3.209-0.585c-4.727-1.774-7.122-7.04-5.358-11.767l7.909-21.093l-14.949-14.949 c-3.575-3.575-3.575-9.353,0-12.928c3.575-3.575,9.353-3.575,12.928,0l9.079,9.079l12.462-33.253 c1.783-4.727,7.04-7.095,11.776-5.358c4.727,1.783,7.122,7.049,5.349,11.776L173.129,359.781z M256,493.714 c-24.923,0-48.603-34.167-58.734-83.904c1.417-0.832,2.743-1.728,4.032-2.642c0.539-0.384,1.051-0.786,1.573-1.189 c1.801-1.39,3.438-2.88,4.946-4.443c0.521-0.53,1.061-1.042,1.536-1.591c1.554-1.783,2.898-3.685,4.105-5.659 c0.366-0.613,0.722-1.225,1.051-1.856c1.143-2.13,2.121-4.352,2.871-6.693c0.155-0.466,0.265-0.951,0.393-1.426 c0.741-2.615,1.317-5.312,1.582-8.155c2.761-13.797,18.039-91.95,21.65-152.512c8.256-4.599,16.247-5.531,24.823-2.331 c0,0.009,0,0.027,0.009,0.046c3.355,60.864,18.981,140.827,21.778,154.798c0.247,2.715,0.786,5.632,1.664,8.603 c0.073,0.238,0.119,0.494,0.201,0.731c0.695,2.222,1.701,4.471,2.88,6.711c0.338,0.649,0.667,1.298,1.042,1.929 c1.198,2.011,2.597,3.995,4.288,5.925c0.512,0.585,1.115,1.106,1.655,1.664c1.298,1.326,2.725,2.606,4.297,3.858 c0.823,0.64,1.646,1.28,2.514,1.883c1.573,1.088,3.319,2.112,5.147,3.099c0.896,0.494,1.728,1.033,2.679,1.49 c0.091,0.037,0.155,0.091,0.247,0.137C303.835,460.553,280.402,493.714,256,493.714z M363.035,304.393 c3.575,3.575,3.575,9.353,0,12.928l-14.949,14.949l7.899,21.093c1.774,4.727-0.622,9.993-5.349,11.767 c-1.061,0.393-2.139,0.585-3.209,0.585c-3.703,0-7.186-2.267-8.567-5.934l-27.429-73.143c-1.765-4.727,0.631-9.993,5.358-11.776 c4.727-1.737,9.993,0.631,11.767,5.358l12.471,33.253l9.079-9.079C353.682,300.818,359.461,300.818,363.035,304.393z"></path> </g> </g> </svg> 