<?xml version="1.0" encoding="UTF-8"?> <!-- icon666.com - MILLIONS vector ICONS FREE --> <svg xmlns="http://www.w3.org/2000/svg" id="Layer_1" viewBox="0 0 512 512"> <path d="m275.096 296.423c33.162-33.163 29.022-90.001-13.258-117.155l-103.911 103.911c26.973 41.99 83.736 46.678 117.169 13.244z"></path> <path d="m495.052 133.341h-8.032c7.268-25.189-.445-53.644-22.431-71.402-25.011-20.188-61.035-20.024-85.808.757l-287.645 41.833c-9.263 1.347-15.679 9.947-14.332 19.21 1.347 9.262 9.945 15.678 19.21 14.332l197.037-28.655-132.797 71.05c-8.254 4.416-11.364 14.686-6.949 22.939 4.418 8.256 14.688 11.363 22.939 6.949l117.228-62.72-7.357 7.357c55.125 40.396 59.592 118.757 12.947 165.402-47.038 47.038-125.351 41.781-165.422-12.927-6.186 6.187-123.92 123.921-128.602 128.604-12.34 12.339-.155 32.932 16.507 28.317l144.907-40.139c65.669 20.061 138.722 3.4 189.288-47.165 42.169-42.168 60.42-99.552 54.315-154.856l54.921-54.986h30.075c9.36 0 16.948-7.588 16.948-16.948.001-9.362-7.588-16.952-16.947-16.952zm-59.114-5.705c-10.204-.009-18.468-8.288-18.459-18.491s8.288-18.468 18.491-18.459c10.204.009 18.468 8.288 18.459 18.491s-8.288 18.468-18.491 18.459z"></path> <g></g> <g></g> <g></g> <g></g> <g></g> <g></g> <g></g> <g></g> <g></g> <g></g> <g></g> <g></g> <g></g> <g></g> <g></g> </svg> 